# xmcd CD database file
#
# Track frame offsets:
#	150
#	37250
#	62162
#	101397
#	128945
#	146262
#	169487
#	177717
#	201840
#	240102
#	273325
#
# Disc length: 3734 seconds
#
# Revision: 0
# Processed by: cddbd v1.4PL0 Copyright (c) Steve Scherf et al.
# Submitted via: CDex 1.50beta10
#
DISCID=a10e940b
DTITLE=Michael Bellar and the as-is ensemble - React!
DYEAR=1900
DGENRE=Jazz
TTITLE0=Acceptance
TTITLE1=Dungey On The One
TTITLE2=Now I Can Only Listen
TTITLE3=A Thanks for Today-A Prayer for Tomorrow
TTITLE4=Money Ain't Funky Like This
TTITLE5=Face!
TTITLE6=Somewhere Over The Rainbow
TTITLE7=Troy's Magic Plaything
TTITLE8=Trus
TTITLE9=Blackbird
TTITLE10=Celebrate The Life of William Bright
EXTD=
EXTT0=
EXTT1=
EXTT2=
EXTT3=
EXTT4=
EXTT5=
EXTT6=
EXTT7=
EXTT8=
EXTT9=
EXTT10=
PLAYORDER=
